<?xml version="1.0" encoding="utf-8"?>
<!-- Generator: Adobe Illustrator 18.0.0, SVG Export Plug-In . SVG Version: 6.00 Build 0)  -->
<!DOCTYPE svg PUBLIC "-//W3C//DTD SVG 1.1//EN" "http://www.w3.org/Graphics/SVG/1.1/DTD/svg11.dtd">
<svg version="1.1" id="Layer_1" xmlns="http://www.w3.org/2000/svg" xmlns:xlink="http://www.w3.org/1999/xlink" x="0px" y="0px"
	 viewBox="0 0 1400 980" enable-background="new 0 0 1400 980" xml:space="preserve">
<g>
	<g>
		<g>
			<g>
				<rect fill="#2E9A48" width="1400" height="980"/>
			</g>
		</g>
	</g>
	<g>
		<g>
			<g>
				<rect fill="#4678B2" width="1400" height="460.1"/>
			</g>
		</g>
	</g>
	<g>
		<rect x="26.6" y="257.7" fill="#0A2F37" width="34.8" height="112.6"/>
		<rect x="108.6" y="257.7" fill="#0A2F37" width="34.8" height="112.6"/>
		<rect x="190.6" y="257.7" fill="#0A2F37" width="34.8" height="112.6"/>
		<rect x="272.6" y="257.7" fill="#0A2F37" width="34.8" height="112.6"/>
		<rect x="354.6" y="257.7" fill="#0A2F37" width="34.8" height="112.6"/>
		<rect x="436.6" y="257.7" fill="#0A2F37" width="34.8" height="112.6"/>
		<rect x="518.6" y="257.7" fill="#0A2F37" width="34.8" height="112.6"/>
		<rect x="600.6" y="257.7" fill="#0A2F37" width="34.8" height="112.6"/>
		<rect x="682.6" y="257.7" fill="#0A2F37" width="34.8" height="112.6"/>
		<rect x="764.6" y="257.7" fill="#0A2F37" width="34.8" height="112.6"/>
		<rect x="846.6" y="257.7" fill="#0A2F37" width="34.8" height="112.6"/>
		<rect x="928.6" y="257.7" fill="#0A2F37" width="34.8" height="112.6"/>
		<rect x="1010.6" y="257.7" fill="#0A2F37" width="34.8" height="112.6"/>
		<rect x="1092.6" y="257.7" fill="#0A2F37" width="34.8" height="112.6"/>
		<rect x="1174.6" y="257.7" fill="#0A2F37" width="34.8" height="112.6"/>
		<rect x="1256.6" y="257.7" fill="#0A2F37" width="34.8" height="112.6"/>
		<rect x="1338.6" y="257.7" fill="#0A2F37" width="34.8" height="112.6"/>
	</g>
	<path fill="#B8D4DC" d="M1400,329.2c-223.7-21.1-459-31.8-700-31.8c-241.4,0-478.5,11-700,31.8v207.6h1400V329.2z"/>
	<path fill="#0A2F37" d="M1400,355.2c-213.9-29.7-452.1-46.3-703.2-46.3c-248.6,0-484.5,16.2-696.8,45.4v182.5h1400V355.2z"/>
	<path fill="#1F464F" d="M1400,443.9c-70.8-17.5-145.9-32.3-224.8-44.1C1023.8,377,863.9,365.4,700,365.4
		C449.8,365.4,206.8,393,0,444v92.9h1400V443.9z"/>
	<g>
		<g>
			<path fill="#01994D" d="M1400,568.4v39.3l-113,48.9L796,868.8l-26,11.2l-5,2.2l-18.7,8.1l-9.8,4.2l-11,4.8l-5,2.2l-20.5,8.9
				l-20.5-8.9l-5-2.2l-11-4.8l-9.8-4.2l-18.7-8.1l-5-2.2l-26-11.2l-491-212.2L0,607.8v-39.3c307.1-117.7,734.9-144.8,1097.5-81.2
				C1205.8,506.2,1308.3,533.3,1400,568.4z"/>
		</g>
		<g>
			<g>
				<path fill="#32903F" d="M1400,555.7v142.5L790,961.9l-28.5,12.3l-13.4,5.8h-96.2l-23.2-10L88.1,736.3L0,698.3V555.7
					c196.4-71.2,443.8-110.3,700-110.3c140.9,0,278.4,11.6,408.6,34.4C1214.2,498.3,1312.1,523.8,1400,555.7z"/>
			</g>
		</g>
		<g>
			<g>
				<path fill="#3EA848" d="M1400,517.5v142.5L790,923.7L761.5,936L700,962.6l-71.3-30.8L88.1,698.1L0,660.1V517.5
					c196.4-71.2,443.8-110.3,700-110.3c140.9,0,278.4,11.6,408.6,34.4C1214.2,460.1,1312.1,485.6,1400,517.5z"/>
			</g>
		</g>
		<g>
			<path fill="#66AF45" d="M545.3,412c-10.5,0.7-21,1.4-31.4,2.2L377.2,823.1l47.7,20.6L545.3,412z"/>
			<path fill="#66AF45" d="M475.1,417.4c-10.9,1-21.7,2.1-32.5,3.2L278.3,780.3l43.5,18.8L475.1,417.4z"/>
			<path fill="#66AF45" d="M681.5,407.3c-10.2,0.1-20.3,0.2-30.5,0.4l-45.7,514l23.4,10.1l34.7,15L681.5,407.3z"/>
			<path fill="#66AF45" d="M613.8,408.7c-10.3,0.4-20.5,0.8-30.8,1.2l-97.4,460l52.5,22.7L613.8,408.7z"/>
			<path fill="#66AF45" d="M243.4,450.7c-13.4,2.7-26.6,5.5-39.7,8.4L27.9,672.1l33.8,14.6L243.4,450.7z"/>
			<path fill="#66AF45" d="M106.9,483.3L0,596.2V642l152.3-170.8C137,475.1,121.8,479.1,106.9,483.3z"/>
			<path fill="#66AF45" d="M402.3,425.2c-11.4,1.4-22.7,2.9-34,4.4L187.7,741.2l39.9,17.2L402.3,425.2z"/>
			<path fill="#66AF45" d="M325.7,436c-12.2,1.9-24.3,4-36.3,6.1L104.6,705.3l36.7,15.8L325.7,436z"/>
			<path fill="#66AF45" d="M790,923.7l4.7-2l-45.7-514c-10.1-0.2-20.3-0.3-30.5-0.4l18.2,539.5l24.9-10.7L790,923.7z"/>
			<path fill="#66AF45" d="M1108.6,441.6c-11.4-2-22.9-3.9-34.4-5.7l184.5,285.3l36.7-15.8l-184.9-263.3
				C1109.9,441.8,1109.2,441.7,1108.6,441.6z"/>
			<path fill="#66AF45" d="M1156.5,450.6l181.7,236.2l33.8-14.6L1196.2,459C1183.1,456.1,1169.9,453.3,1156.5,450.6z"/>
			<path fill="#66AF45" d="M1247.6,471.1L1400,642v-45.8l-107-112.9C1278.1,479,1262.9,475,1247.6,471.1z"/>
			<path fill="#66AF45" d="M816.9,409.9c-10.2-0.5-20.5-0.9-30.8-1.2l75.6,484l52.5-22.7L816.9,409.9z"/>
			<path fill="#66AF45" d="M854.7,412l120.4,431.8l47.7-20.6l-136.7-409C875.7,413.3,865.2,412.6,854.7,412z"/>
			<path fill="#66AF45" d="M924.9,417.3l153.3,381.9l43.5-18.8L957.3,420.5C946.5,419.4,935.7,418.3,924.9,417.3z"/>
			<path fill="#66AF45" d="M997.6,425.1l174.8,333.4l39.9-17.2l-180.6-311.7C1020.3,428,1009,426.5,997.6,425.1z"/>
		</g>
		<path fill="#ECAE57" d="M1108.6,432.3c-130.2-18.3-267.7-27.5-408.6-27.5c-256.2,0-503.6,28-700,85V539
			c196.4-57,443.8-88.2,700-88.2c140.9,0,278.4,9.2,408.6,27.5c105.6,14.8,203.5,35.2,291.4,60.7v-49.2
			C1312.1,464.3,1214.2,447.1,1108.6,432.3z"/>
		<path fill="#ECAE57" d="M1287.9,657c-324.7-140.3-851.1-140.3-1175.8,0l0,0L700,911.1L1287.9,657L1287.9,657z M991.5,735.5
			L700,861.5l-291.5-126c12.6-5.1,20.5-12.3,20.5-20.3c0-8-7.9-15.2-20.5-20.3l246.1-106.4c11.6,5,27.6,8.1,45.3,8.1
			c17.7,0,33.7-3.1,45.3-8.1L991.5,695c-12.6,5.1-20.5,12.3-20.5,20.3C970.9,723.3,978.9,730.4,991.5,735.5z"/>
		<g>
			<ellipse fill="#ECAE57" cx="700" cy="887.4" rx="105.1" ry="45.4"/>
		</g>
		<g>
			<ellipse fill="#ECAE57" cx="700" cy="742.1" rx="34" ry="14.7"/>
		</g>
		<g>
			<path fill="#FFFFFF" d="M700,881.7c-0.4,0-0.8-0.1-1.1-0.2L23.1,589.4c-1.2-0.5-1.7-1.8-1.1-2.8c0.6-1,2.1-1.5,3.4-0.9L700,877.2
				l674.7-291.6c1.2-0.5,2.7-0.1,3.4,0.9c0.6,1,0.1,2.3-1.1,2.8L701.1,881.5C700.8,881.6,700.4,881.7,700,881.7z"/>
		</g>
		<g>
			<g>
				<path fill="#FFFFFF" d="M666.7,865.3h-34.2c-1.4,0-2.5,0.9-2.5,2.1v25c0,1.2,1.1,2.1,2.5,2.1h34.2c1.4,0,2.5-0.9,2.5-2.1v-25
					C669.2,866.3,668.1,865.3,666.7,865.3z M664.2,890.3H635v-20.7h29.2V890.3z"/>
			</g>
			<g>
				<path fill="#FFFFFF" d="M767.5,865.3h-34.2c-1.4,0-2.5,0.9-2.5,2.1v25c0,1.2,1.1,2.1,2.5,2.1h34.2c1.4,0,2.5-0.9,2.5-2.1v-25
					C770,866.3,768.9,865.3,767.5,865.3z M765,890.3h-29.2v-20.7H765V890.3z"/>
			</g>
		</g>
		<g>
			<path fill="#FFFFFF" d="M723,884.9h-46c-1.4,0-2.5,0.9-2.5,2.1v33.6c0,1.2,1.1,2.1,2.5,2.1h46c1.4,0,2.5-0.9,2.5-2.1v-33.6
				C725.5,885.9,724.4,884.9,723,884.9z M720.5,918.5h-41v-29.3h41V918.5z"/>
		</g>
	</g>
	<path fill="#B8D4DC" d="M696.8,188.1c-262.2,0-503.8-7.4-696.8-19.7v97.3h1400V168C1206,180.6,961.9,188.1,696.8,188.1z"/>
	<path fill="#0A2F37" d="M696.8,205.7C434.6,205.7,193,198.4,0,186v97.3h1400v-97.7C1206,198.2,961.9,205.7,696.8,205.7z"/>
	<g>
		<g>
			<path fill="#1F464F" d="M191.6,195.9c-16.6-0.7-32.9-1.4-49-2.1L0,269.7v13.6h43L191.6,195.9z"/>
			<path fill="#1F464F" d="M635.8,205.6c-5.8,0-11.5-0.1-17.3-0.1L598,283.3h21.6L635.8,205.6z"/>
			<path fill="#1F464F" d="M558.2,205c-6.5-0.1-12.9-0.1-19.4-0.2l-41.1,78.5h24.4L558.2,205z"/>
			<path fill="#1F464F" d="M708.3,205.7c-3.8,0-7.7,0-11.5,0c-1.7,0-3.4,0-5.1,0l-2.1,77.6h20.8L708.3,205.7z"/>
			<path fill="#1F464F" d="M468.2,203.8c-7.9-0.1-15.8-0.3-23.6-0.4L378,283.3h30.2L468.2,203.8z"/>
			<path fill="#1F464F" d="M353.9,201.3c-10.7-0.3-21.4-0.6-32-0.9l-103.1,82.8h42L353.9,201.3z"/>
			<path fill="#1F464F" d="M1077.8,200.3c-10.6,0.3-21.2,0.6-31.9,0.9l93.3,82.1h42L1077.8,200.3z"/>
			<path fill="#1F464F" d="M1400,269.7l-143.1-76.2c-16.1,0.8-32.4,1.5-48.9,2.2l149,87.6h43V269.7z"/>
			<path fill="#1F464F" d="M861.2,204.7c-6.4,0.1-12.9,0.2-19.3,0.2l36.1,78.3h24.4L861.2,204.7z"/>
			<path fill="#1F464F" d="M781.5,205.4c-5.7,0-11.5,0.1-17.3,0.1l16.2,77.7H802L781.5,205.4z"/>
			<path fill="#1F464F" d="M955.3,203.3c-7.8,0.2-15.7,0.3-23.6,0.4l60.1,79.6h30.2L955.3,203.3z"/>
		</g>
	</g>
	<g>
		<rect x="544.1" y="120.2" fill="#1F464F" width="311.8" height="107.7"/>
		<rect x="554.1" y="130.2" fill="#05262B" width="291.8" height="87.7"/>
		<rect x="554.1" y="170.8" fill="#1F464F" width="291.8" height="6.5"/>
	</g>
	<g>
		<g>
			<g>
				<polygon fill="#1F464F" points="448.1,216.4 298.9,214.6 299.6,156.7 314.2,152.6 448.8,162.8 				"/>
				<polygon fill="#0A2F37" points="458.6,216.5 313.4,214.8 314.2,152.6 459.3,163.6 				"/>
				<g>
					<path fill="#F4E295" d="M339.7,172c-0.1,5-4,8.9-8.9,8.7c-5-0.2-9-4.6-8.9-9.7c0.1-5.1,4.2-9,9.1-8.7
						C335.9,162.6,339.8,166.9,339.7,172z"/>
					<path fill="#F4E295" d="M360.7,173.2c-0.1,4.9-3.9,8.7-8.6,8.5c-4.7-0.2-8.6-4.5-8.5-9.5s4-8.8,8.7-8.5
						C357.1,164,360.8,168.2,360.7,173.2z"/>
					<path fill="#F4E295" d="M380.8,174.3c-0.1,4.8-3.7,8.6-8.2,8.3c-4.5-0.2-8.2-4.4-8.1-9.3s3.8-8.6,8.3-8.3
						C377.3,165.3,380.9,169.5,380.8,174.3z"/>
					<path fill="#F4E295" d="M400.1,175.4c-0.1,4.7-3.6,8.4-7.8,8.2c-4.3-0.2-7.8-4.3-7.8-9.1c0.1-4.8,3.6-8.5,8-8.2
						C396.7,166.6,400.1,170.7,400.1,175.4z"/>
					<path fill="#F4E295" d="M418.5,176.5c-0.1,4.6-3.4,8.2-7.5,8c-4.2-0.2-7.5-4.2-7.5-8.9s3.5-8.3,7.7-8
						C415.3,167.9,418.6,171.8,418.5,176.5z"/>
					<path fill="#F4E295" d="M436.3,177.5c-0.1,4.5-3.3,8.1-7.2,7.9c-4-0.2-7.2-4.1-7.1-8.7c0.1-4.6,3.4-8.1,7.3-7.9
						C433.2,169.1,436.3,173,436.3,177.5z"/>
					<path fill="#F4E295" d="M453.3,178.5c-0.1,4.4-3.1,7.9-6.9,7.7c-3.8-0.2-6.9-4-6.9-8.5c0.1-4.5,3.2-8,7.1-7.7
						C450.3,170.2,453.3,174,453.3,178.5z"/>
				</g>
				<g>
					<path fill="#F4E295" d="M339.4,195.2c-0.1,5-4,9-8.9,8.9c-5-0.1-9-4.4-8.9-9.5s4.2-9.1,9.1-8.9
						C335.6,185.9,339.5,190.2,339.4,195.2z"/>
					<path fill="#F4E295" d="M360.5,195.9c-0.1,4.9-3.9,8.8-8.6,8.7c-4.7-0.1-8.6-4.3-8.5-9.3s4-8.9,8.7-8.7
						C356.8,186.8,360.5,191,360.5,195.9z"/>
					<path fill="#F4E295" d="M380.6,196.5c-0.1,4.8-3.7,8.7-8.2,8.5c-4.5-0.1-8.2-4.2-8.1-9.1s3.8-8.7,8.3-8.5
						C377.1,187.7,380.6,191.7,380.6,196.5z"/>
					<path fill="#F4E295" d="M399.8,197.2c-0.1,4.7-3.6,8.5-7.8,8.4c-4.3-0.1-7.8-4.1-7.8-8.9c0.1-4.8,3.6-8.5,8-8.4
						C396.5,188.5,399.9,192.5,399.8,197.2z"/>
					<path fill="#F4E295" d="M418.3,197.8c-0.1,4.6-3.4,8.3-7.5,8.2c-4.2-0.1-7.5-4-7.5-8.7s3.5-8.4,7.7-8.2
						C415.1,189.3,418.3,193.2,418.3,197.8z"/>
					<path fill="#F4E295" d="M436,198.4c-0.1,4.5-3.3,8.1-7.2,8c-4-0.1-7.2-3.9-7.1-8.5s3.4-8.2,7.3-8
						C432.9,190,436.1,193.8,436,198.4z"/>
					<path fill="#F4E295" d="M453,198.9c-0.1,4.4-3.1,8-6.9,7.9c-3.8-0.1-6.9-3.8-6.9-8.3c0.1-4.5,3.2-8,7.1-7.9
						C450.1,190.8,453.1,194.5,453,198.9z"/>
				</g>
			</g>
			<g>
				<polygon fill="#1F464F" points="201.1,204.5 37,202.6 37.8,138.8 53.8,134.3 201.8,145.5 				"/>
				<polygon fill="#0A2F37" points="212.7,204.7 53,202.8 53.8,134.3 213.4,146.4 				"/>
				<g>
					<path fill="#F4E295" d="M81.9,155.6c-0.1,5.5-4.4,9.8-9.8,9.6c-5.4-0.3-9.8-5.1-9.8-10.7c0.1-5.6,4.6-9.9,10-9.6
						C77.7,145.3,82,150.1,81.9,155.6z"/>
					<path fill="#F4E295" d="M105,157c-0.1,5.4-4.3,9.6-9.4,9.4c-5.2-0.2-9.4-4.9-9.3-10.4c0.1-5.5,4.4-9.7,9.6-9.4
						C101,146.9,105.1,151.5,105,157z"/>
					<path fill="#F4E295" d="M127.1,158.2c-0.1,5.3-4.1,9.4-9,9.2c-5-0.2-9-4.8-8.9-10.2c0.1-5.4,4.2-9.5,9.2-9.2
						C123.3,148.4,127.2,152.9,127.1,158.2z"/>
					<path fill="#F4E295" d="M148.3,159.4c-0.1,5.2-3.9,9.2-8.6,9c-4.8-0.2-8.6-4.7-8.6-10c0.1-5.3,4-9.3,8.8-9
						C144.6,149.8,148.4,154.3,148.3,159.4z"/>
					<path fill="#F4E295" d="M168.6,160.6c-0.1,5.1-3.7,9-8.3,8.8c-4.6-0.2-8.3-4.6-8.2-9.8c0.1-5.2,3.8-9.1,8.4-8.8
						C165.1,151.2,168.7,155.5,168.6,160.6z"/>
					<path fill="#F4E295" d="M188.1,161.7c-0.1,5-3.6,8.9-7.9,8.6c-4.4-0.2-7.9-4.5-7.9-9.6c0.1-5.1,3.7-8.9,8.1-8.6
						C184.7,152.5,188.1,156.7,188.1,161.7z"/>
					<path fill="#F4E295" d="M206.8,162.8c-0.1,4.9-3.5,8.7-7.6,8.5c-4.2-0.2-7.6-4.4-7.5-9.4s3.5-8.8,7.8-8.5
						C203.5,153.7,206.8,157.9,206.8,162.8z"/>
				</g>
				<g>
					<path fill="#F4E295" d="M81.6,181.2c-0.1,5.5-4.4,9.9-9.8,9.8c-5.4-0.1-9.8-4.8-9.8-10.5c0.1-5.6,4.6-10,10-9.8
						C77.4,171,81.7,175.7,81.6,181.2z"/>
					<path fill="#F4E295" d="M104.7,182c-0.1,5.4-4.3,9.7-9.4,9.6c-5.2-0.1-9.4-4.7-9.3-10.2c0.1-5.5,4.4-9.8,9.6-9.6
						C100.7,172,104.8,176.5,104.7,182z"/>
					<path fill="#F4E295" d="M126.8,182.7c-0.1,5.3-4.1,9.5-9,9.4c-5-0.1-9-4.6-8.9-10c0.1-5.4,4.2-9.6,9.2-9.4
						C123,172.9,126.9,177.4,126.8,182.7z"/>
					<path fill="#F4E295" d="M148,183.4c-0.1,5.2-3.9,9.3-8.6,9.2c-4.8-0.1-8.6-4.5-8.6-9.8c0.1-5.3,4-9.4,8.8-9.2
						C144.3,173.8,148.1,178.2,148,183.4z"/>
					<path fill="#F4E295" d="M168.3,184c-0.1,5.1-3.8,9.1-8.3,9c-4.6-0.1-8.3-4.4-8.2-9.6c0.1-5.2,3.8-9.2,8.4-9
						C164.8,174.7,168.4,179,168.3,184z"/>
					<path fill="#F4E295" d="M187.8,184.7c-0.1,5-3.6,8.9-7.9,8.8c-4.4-0.1-7.9-4.3-7.9-9.4c0.1-5.1,3.7-9,8.1-8.8
						C184.4,175.5,187.9,179.7,187.8,184.7z"/>
					<path fill="#F4E295" d="M206.5,185.3c-0.1,4.9-3.5,8.8-7.6,8.7c-4.2-0.1-7.6-4.2-7.5-9.2c0.1-5,3.5-8.8,7.8-8.7
						C203.2,176.3,206.6,180.4,206.5,185.3z"/>
				</g>
			</g>
		</g>
		<g>
			<g>
				<polygon fill="#1F464F" points="951.9,216.4 1101.1,214.6 1100.4,156.7 1085.8,152.6 951.2,162.8 				"/>
				<polygon fill="#0A2F37" points="941.4,216.5 1086.6,214.8 1085.8,152.6 940.7,163.6 				"/>
				<g>
					<path fill="#F4E295" d="M1060.3,172c0.1,5,4,8.9,8.9,8.7c5-0.2,9-4.6,8.9-9.7c-0.1-5.1-4.2-9-9.1-8.7
						C1064.1,162.6,1060.2,166.9,1060.3,172z"/>
					<path fill="#F4E295" d="M1039.3,173.2c0.1,4.9,3.9,8.7,8.6,8.5c4.7-0.2,8.6-4.5,8.5-9.5s-4-8.8-8.7-8.5
						C1042.9,164,1039.2,168.2,1039.3,173.2z"/>
					<path fill="#F4E295" d="M1019.2,174.3c0.1,4.8,3.7,8.6,8.2,8.3c4.5-0.2,8.2-4.4,8.1-9.3s-3.8-8.6-8.3-8.3
						C1022.7,165.3,1019.1,169.5,1019.2,174.3z"/>
					<path fill="#F4E295" d="M999.9,175.4c0.1,4.7,3.6,8.4,7.8,8.2c4.3-0.2,7.8-4.3,7.8-9.1c-0.1-4.8-3.6-8.5-8-8.2
						C1003.3,166.6,999.9,170.7,999.9,175.4z"/>
					<path fill="#F4E295" d="M981.5,176.5c0.1,4.6,3.4,8.2,7.5,8c4.2-0.2,7.5-4.2,7.5-8.9c-0.1-4.7-3.5-8.3-7.7-8
						C984.7,167.9,981.4,171.8,981.5,176.5z"/>
					<path fill="#F4E295" d="M963.7,177.5c0.1,4.5,3.3,8.1,7.2,7.9c4-0.2,7.2-4.1,7.1-8.7c-0.1-4.6-3.4-8.1-7.3-7.9
						C966.8,169.1,963.7,173,963.7,177.5z"/>
					<path fill="#F4E295" d="M946.7,178.5c0.1,4.4,3.1,7.9,6.9,7.7c3.8-0.2,6.9-4,6.9-8.5c-0.1-4.5-3.2-8-7.1-7.7
						C949.7,170.2,946.7,174,946.7,178.5z"/>
				</g>
				<g>
					<path fill="#F4E295" d="M1060.6,195.2c0.1,5,4,9,8.9,8.9c5-0.1,9-4.4,8.9-9.5s-4.2-9.1-9.1-8.9
						C1064.4,185.9,1060.5,190.2,1060.6,195.2z"/>
					<path fill="#F4E295" d="M1039.5,195.9c0.1,4.9,3.9,8.8,8.6,8.7c4.7-0.1,8.6-4.3,8.5-9.3c-0.1-5-4-8.9-8.7-8.7
						C1043.2,186.8,1039.5,191,1039.5,195.9z"/>
					<path fill="#F4E295" d="M1019.4,196.5c0.1,4.8,3.7,8.7,8.2,8.5c4.5-0.1,8.2-4.2,8.1-9.1s-3.8-8.7-8.3-8.5
						C1022.9,187.7,1019.4,191.7,1019.4,196.5z"/>
					<path fill="#F4E295" d="M1000.2,197.2c0.1,4.7,3.6,8.5,7.8,8.4c4.3-0.1,7.8-4.1,7.8-8.9c-0.1-4.8-3.6-8.5-8-8.4
						C1003.5,188.5,1000.1,192.5,1000.2,197.2z"/>
					<path fill="#F4E295" d="M981.7,197.8c0.1,4.6,3.4,8.3,7.5,8.2c4.2-0.1,7.5-4,7.5-8.7c-0.1-4.7-3.5-8.4-7.7-8.2
						C984.9,189.3,981.7,193.2,981.7,197.8z"/>
					<path fill="#F4E295" d="M964,198.4c0.1,4.5,3.3,8.1,7.2,8c4-0.1,7.2-3.9,7.1-8.5c-0.1-4.6-3.4-8.2-7.3-8
						C967.1,190,963.9,193.8,964,198.4z"/>
					<path fill="#F4E295" d="M947,198.9c0.1,4.4,3.1,8,6.9,7.9c3.8-0.1,6.9-3.8,6.9-8.3c-0.1-4.5-3.2-8-7.1-7.9
						C949.9,190.8,946.9,194.5,947,198.9z"/>
				</g>
			</g>
			<g>
				<polygon fill="#1F464F" points="1198.9,204.5 1363,202.6 1362.2,138.8 1346.2,134.3 1198.2,145.5 				"/>
				<polygon fill="#0A2F37" points="1187.3,204.7 1347,202.8 1346.2,134.3 1186.6,146.4 				"/>
				<g>
					<path fill="#F4E295" d="M1318.1,155.6c0.1,5.5,4.4,9.8,9.8,9.6c5.4-0.3,9.8-5.1,9.8-10.7c-0.1-5.6-4.6-9.9-10-9.6
						C1322.3,145.3,1318,150.1,1318.1,155.6z"/>
					<path fill="#F4E295" d="M1295,157c0.1,5.4,4.3,9.6,9.4,9.4c5.2-0.2,9.4-4.9,9.3-10.4c-0.1-5.5-4.4-9.7-9.6-9.4
						C1299,146.9,1294.9,151.5,1295,157z"/>
					<path fill="#F4E295" d="M1272.9,158.2c0.1,5.3,4.1,9.4,9,9.2c5-0.2,9-4.8,8.9-10.2s-4.2-9.5-9.2-9.2
						C1276.7,148.4,1272.8,152.9,1272.9,158.2z"/>
					<path fill="#F4E295" d="M1251.7,159.4c0.1,5.2,3.9,9.2,8.6,9c4.8-0.2,8.6-4.7,8.6-10c-0.1-5.3-4-9.3-8.8-9
						C1255.4,149.8,1251.6,154.3,1251.7,159.4z"/>
					<path fill="#F4E295" d="M1231.4,160.6c0.1,5.1,3.8,9,8.3,8.8c4.6-0.2,8.3-4.6,8.2-9.8s-3.8-9.1-8.4-8.8
						C1234.9,151.2,1231.3,155.5,1231.4,160.6z"/>
					<path fill="#F4E295" d="M1211.9,161.7c0.1,5,3.6,8.9,7.9,8.6c4.4-0.2,7.9-4.5,7.9-9.6c-0.1-5.1-3.7-8.9-8.1-8.6
						C1215.3,152.5,1211.9,156.7,1211.9,161.7z"/>
					<path fill="#F4E295" d="M1193.2,162.8c0.1,4.9,3.5,8.7,7.6,8.5c4.2-0.2,7.6-4.4,7.5-9.4c-0.1-5-3.5-8.8-7.8-8.5
						C1196.5,153.7,1193.2,157.9,1193.2,162.8z"/>
				</g>
				<g>
					<path fill="#F4E295" d="M1318.4,181.2c0.1,5.5,4.4,9.9,9.8,9.8c5.4-0.1,9.8-4.8,9.8-10.5c-0.1-5.6-4.6-10-10-9.8
						C1322.6,171,1318.3,175.7,1318.4,181.2z"/>
					<path fill="#F4E295" d="M1295.3,182c0.1,5.4,4.3,9.7,9.4,9.6c5.2-0.1,9.4-4.7,9.3-10.2c-0.1-5.5-4.4-9.8-9.6-9.6
						C1299.3,172,1295.2,176.5,1295.3,182z"/>
					<path fill="#F4E295" d="M1273.2,182.7c0.1,5.3,4.1,9.5,9,9.4c5-0.1,9-4.6,8.9-10s-4.2-9.6-9.2-9.4
						C1277,172.9,1273.1,177.4,1273.2,182.7z"/>
					<path fill="#F4E295" d="M1252,183.4c0.1,5.2,3.9,9.3,8.6,9.2c4.8-0.1,8.6-4.5,8.6-9.8c-0.1-5.3-4-9.4-8.8-9.2
						C1255.7,173.8,1251.9,178.2,1252,183.4z"/>
					<path fill="#F4E295" d="M1231.7,184c0.1,5.1,3.8,9.1,8.3,9c4.6-0.1,8.3-4.4,8.2-9.6c-0.1-5.2-3.8-9.2-8.4-9
						C1235.2,174.7,1231.6,179,1231.7,184z"/>
					<path fill="#F4E295" d="M1212.2,184.7c0.1,5,3.6,8.9,7.9,8.8c4.4-0.1,7.9-4.3,7.9-9.4c-0.1-5.1-3.7-9-8.1-8.8
						C1215.6,175.5,1212.1,179.7,1212.2,184.7z"/>
					<path fill="#F4E295" d="M1193.5,185.3c0.1,4.9,3.5,8.8,7.6,8.7c4.2-0.1,7.6-4.2,7.5-9.2c-0.1-5-3.5-8.8-7.8-8.7
						C1196.8,176.3,1193.4,180.4,1193.5,185.3z"/>
				</g>
			</g>
		</g>
	</g>
</g>
</svg>
