<svg id="Layer_1" data-name="Layer 1" xmlns="http://www.w3.org/2000/svg" viewBox="0 0 234.89 25.99"><defs><style>.cls-1{fill:#3498db;}.cls-2{fill:#fff;}</style></defs><title>mdc-logo</title><path class="cls-1" d="M.76,8.68H5.16V10.8a11.4,11.4,0,0,1-.07,1.26h.07a6.94,6.94,0,0,1,6-3.82c2.81,0,4.61,1.3,5.36,3.78h.07a7.18,7.18,0,0,1,6.26-3.78c3.82,0,6,2.16,6,7V27H24.27V16.09c0-2.09-.4-3.67-2.52-3.67-2.34,0-3.89,1.87-4.43,4.18A9.88,9.88,0,0,0,17.11,19V27H12.54V16.09c0-2-.32-3.67-2.48-3.67-2.38,0-3.92,1.87-4.5,4.21A9.58,9.58,0,0,0,5.34,19V27H.76Z" transform="translate(-0.76 -1.48)"/><path class="cls-1" d="M39.61,8.25c4,0,5.29,2.34,5.29,2.34H45s0-.47,0-1V1.48h4.57V27H45.19V25.53a9.33,9.33,0,0,1,.07-1.19h-.07a6.38,6.38,0,0,1-5.76,3.13c-5,0-8.14-3.92-8.14-9.61S34.75,8.25,39.61,8.25Zm.86,15.37c2.38,0,4.61-1.73,4.61-5.79,0-2.84-1.51-5.65-4.57-5.65-2.52,0-4.61,2.05-4.61,5.69S37.77,23.62,40.47,23.62Z" transform="translate(-0.76 -1.48)"/><path class="cls-2" d="M62.14,8.5a8.91,8.91,0,0,1,6.62,2.59l-1.26,1.84a7.67,7.67,0,0,0-5.29-2.2A6.94,6.94,0,0,0,55.16,18a7,7,0,0,0,7.13,7.27,8,8,0,0,0,5.8-2.56l1.12,1.91a9.66,9.66,0,0,1-7.05,2.84A9.18,9.18,0,0,1,52.64,18,9.25,9.25,0,0,1,62.14,8.5Z" transform="translate(-0.76 -1.48)"/><path class="cls-2" d="M80.83,8.5a9.49,9.49,0,1,1-9.58,9.39A9.37,9.37,0,0,1,80.83,8.5Zm0,16.77a7.14,7.14,0,0,0,7.05-7.38,7.06,7.06,0,1,0-14.11,0A7.14,7.14,0,0,0,80.83,25.27Z" transform="translate(-0.76 -1.48)"/><path class="cls-2" d="M93.9,8.93h2.41v2.7c0,.79-.07,1.44-.07,1.44h.07a7.71,7.71,0,0,1,7.24-4.57c4.46,0,6,2.56,6,7V27h-2.45V16.17c0-2.84-.43-5.36-3.92-5.36a6.88,6.88,0,0,0-6.59,5.11,8.94,8.94,0,0,0-.29,2.45V27H93.9Z" transform="translate(-0.76 -1.48)"/><path class="cls-2" d="M114.16,8.93h2.41v2.7c0,.79-.07,1.44-.07,1.44h.07a7.71,7.71,0,0,1,7.24-4.57c4.46,0,6,2.56,6,7V27h-2.45V16.17c0-2.84-.43-5.36-3.92-5.36a6.88,6.88,0,0,0-6.59,5.11,8.94,8.94,0,0,0-.29,2.45V27h-2.45Z" transform="translate(-0.76 -1.48)"/><path class="cls-2" d="M142.1,8.5c5,0,7.56,3.85,7.56,8.35,0,.43-.07,1.26-.07,1.26H135.69c.11,4.64,3.28,7.16,7,7.16a8.42,8.42,0,0,0,5.51-2.2l1.12,1.87a10.38,10.38,0,0,1-6.7,2.52A9.15,9.15,0,0,1,133.17,18C133.17,12.06,137.2,8.5,142.1,8.5Zm5.08,7.6c-.14-3.78-2.45-5.54-5.15-5.54a6.14,6.14,0,0,0-6.23,5.54Z" transform="translate(-0.76 -1.48)"/><path class="cls-2" d="M161.5,8.5a8.91,8.91,0,0,1,6.62,2.59l-1.26,1.84a7.67,7.67,0,0,0-5.29-2.2A6.94,6.94,0,0,0,154.52,18a7,7,0,0,0,7.13,7.27,8,8,0,0,0,5.79-2.56l1.12,1.91a9.67,9.67,0,0,1-7.06,2.84A9.18,9.18,0,0,1,152,18,9.25,9.25,0,0,1,161.5,8.5Z" transform="translate(-0.76 -1.48)"/><path class="cls-2" d="M172.63,11.2h-2.38V9.15h2.41V3.93h2.41V9.15h4.54V11.2h-4.54v9c0,4.25,2.7,4.79,4.07,4.79a4.25,4.25,0,0,0,.83-.07v2.2a6.5,6.5,0,0,1-1,.07c-2.09,0-6.3-.68-6.3-6.73Z" transform="translate(-0.76 -1.48)"/><path class="cls-2" d="M182.85,1.73h2.56V4.79h-2.56Zm.07,7.2h2.45V27h-2.45Z" transform="translate(-0.76 -1.48)"/><path class="cls-2" d="M198.44,8.5a9.49,9.49,0,1,1-9.57,9.39A9.37,9.37,0,0,1,198.44,8.5Zm0,16.77a7.14,7.14,0,0,0,7.06-7.38,7.06,7.06,0,1,0-14.11,0A7.14,7.14,0,0,0,198.44,25.27Z" transform="translate(-0.76 -1.48)"/><path class="cls-2" d="M211.51,8.93h2.41v2.7c0,.79-.07,1.44-.07,1.44h.07a7.71,7.71,0,0,1,7.24-4.57c4.46,0,6,2.56,6,7V27h-2.45V16.17c0-2.84-.43-5.36-3.92-5.36a6.88,6.88,0,0,0-6.59,5.11,9,9,0,0,0-.29,2.45V27h-2.45Z" transform="translate(-0.76 -1.48)"/><path class="cls-2" d="M229.36,8.76h-1.24V8.32h3v.45H229.9V12.4h-.53Z" transform="translate(-0.76 -1.48)"/><path class="cls-2" d="M235,10.61c0-.57-.07-1.25-.06-1.76h0c-.14.48-.31,1-.51,1.55l-.72,2h-.4l-.66-1.94c-.19-.58-.36-1.1-.47-1.59h0c0,.51,0,1.19-.08,1.81L232,12.4h-.5l.28-4.08h.67l.7,2c.17.5.31,1,.41,1.38h0c.1-.41.25-.86.43-1.37l.73-2h.67l.25,4.08h-.52Z" transform="translate(-0.76 -1.48)"/></svg>